<svg xmlns="http://www.w3.org/2000/svg" xmlns:xlink="http://www.w3.org/1999/xlink" style="enable-background:new 0 0 60 60" width="60" height="60" version="1.1" xml:space="preserve"><rect id="backgroundrect" width="100%" height="100%" x="0" y="0" fill="none" stroke="none"/><g class="currentLayer"><title>Layer 1</title><g id="svg_1" fill="#dd6563" fill-opacity="1" stroke="#dd6563" stroke-opacity="1" stroke-width="2"><path id="svg_2" fill="#dd6563" stroke="#dd6563" stroke-width="2" d="M50.58280493482397,39.547186672473536 l-5.213143978966643,7.310417374977785 l-3.678825155993437,-2.9468983473013686 c-0.3968547775267681,-0.32005807412838116 -0.9846842719384816,-0.26095644112171956 -1.3107386666200977,0.1254773131526039 c-0.3269859786664217,0.3882522660591442 -0.2692277716085347,0.9619927341699624 0.12949017388784215,1.2793230406211127 l4.458560951274902,3.5724664012795673 C45.134901791686566,49.02254232727994 45.344508188267596,49.094373542780346 45.55877250477266,49.094373542780346 c0.04192127931620784,0 0.08477414261722054,-0.0027277676772305254 0.12762700591823267,-0.009092558924101742 c0.2571171798060746,-0.03455172391158663 0.4881500080376198,-0.172758619557933 0.6372034456063593,-0.38097821891986333 l5.7888628815758985,-8.11874586333043 c0.2934489552134554,-0.4118929192618088 0.19004313290014244,-0.9783593402333455 -0.23289599620115461,-1.2656842022349601 C51.4566307125707,39.03163858147697 50.87718547402223,39.13438449731932 50.58280493482397,39.547186672473536 z"/><path id="svg_3" fill="#dd6563" stroke="#dd6563" stroke-width="2" d="M52.431999144661134,34.69448797468044 C52.939712416379656,32.70776384976422 53.21080335595779,30.67466767433508 53.21080335595779,28.636115963551468 C53.21080335595779,14.849068866936024 41.718783319408026,3.6315789222717285 27.592243773830795,3.6315789222717285 S1.9736841917037964,14.849068866936024 1.9736841917037964,28.636115963551468 c0,7.283139698205481 3.208375243667105,13.847057985514514 8.316250232350827,18.420615124337683 l-0.0242211836049201,0.020912885525433994 l0.8300413304609154,0.6828511752000404 c0.05216870314905876,0.042735026943278194 0.10899532622214048,0.07819600674727509 0.16116402937119922,0.12093103369055293 c0.44436556075180356,0.36006533339442887 0.9054996332300904,0.7019455489406532 1.3750179615716167,1.032914693777956 c0.14812185358393434,0.10456442762716994 0.2962437071678691,0.2091288552543397 0.4462287287214124,0.31005625931186936 c0.4983974318704711,0.3355154242993543 1.0107686235130107,0.6537549866429146 1.5333872389884016,0.9556279429230919 c0.11365324614616361,0.06455716836112226 0.22730649229232738,0.1282050808298345 0.3409597384384903,0.19185299329854638 c0.5710609826852311,0.3173303064511503 1.154232557172922,0.616475495054098 1.752309475417487,0.8919800304543805 c0.0437844472858171,0.020003629633023844 0.08756889457163425,0.038188747481227296 0.13135334185745143,0.05819237711425119 c1.9460789442568474,0.8828874715302781 4.023511230371147,1.5311869228187307 6.1950334989507105,1.9139836535234136 c0.05775820705788639,0.010001814816511918 0.11458483013096805,0.020003629633023844 0.1723430371888544,0.030005444449535745 c0.6735352210137396,0.11365698655127171 1.3554546978907194,0.20458257579228886 2.0466900146157463,0.26550272058377034 c0.08384255863241569,0.007274047139281381 0.1686167012496359,0.011820326601332254 0.2524592598820518,0.019094373740613645 C26.19300462865426,53.605192025027215 26.887966281318505,53.64065300483121 27.592243773830795,53.64065300483121 c3.038826958432664,0 6.012443037929005,-0.5246406499206695 8.852842607598285,-1.5475535288821134 C38.6678457691729,54.70266388716629 42.0168901945455,56.368420682061725 45.75813147752085,56.368420682061725 c6.677594003079503,0 12.110591802460036,-5.302780364536125 12.110591802460036,-11.82032660133224 C57.868723279980884,40.43643893525069 55.70465368327976,36.812144948103736 52.431999144661134,34.69448797468044 zM3.8368521613130326,28.636115963551468 C3.8368521613130326,15.851068860372035 14.493241363493059,5.450090707092073 27.592243773830795,5.450090707092073 S51.34763538634856,15.851068860372035 51.34763538634856,28.636115963551468 c0,1.7303139632565578 -0.1993589727481883,3.4588094147282957 -0.5952821662901513,5.151843886396037 c-0.015836927741678494,-0.007274047139281381 -0.03353702345296633,-0.011820326601332254 -0.049373951194644876,-0.019094373740613645 c-0.3502755782865365,-0.15366424581731947 -0.7098669964211196,-0.2909618855712558 -1.0769110864341387,-0.4118929192618088 c-0.03167385548335715,-0.010001814816511918 -0.06241612698190955,-0.023640653202664508 -0.0940899824652666,-0.03364246801917653 c-0.38288101775469896,-0.12274954547537338 -0.7732147073878332,-0.22822322899495331 -1.1719326528842096,-0.31369328288150966 c-0.01863167969609237,-0.004546279462050864 -0.03726335939218475,-0.010001814816511918 -0.05589503908827714,-0.014548094278562776 c-0.3884705216635263,-0.08183303031691568 -0.7834621312206831,-0.14366243100080744 -1.1840432446866695,-0.18821596972890592 c-0.027947519544138603,-0.0036370235696407045 -0.05589503908827714,-0.009092558924101742 -0.08384255863241569,-0.012729582493742444 C46.6161203275259,32.752317388492315 46.19038644647019,32.727767479397244 45.75813147752085,32.727767479397244 c-5.5177719419977524,0 -10.175691866020843,3.624293987146947 -11.630826050285657,8.558825715256953 C33.719271641890764,40.911070511088795 33.47799138982637,40.388248372952944 33.47799138982637,39.81996344019658 v-2.6886696738568796 c0.18445362899131446,-0.2209491818556724 0.37729151384587084,-0.4709945522684693 0.5747873186244503,-0.7428620640991109 c1.0210160473458614,-1.4066188655585368 1.8398783699891208,-2.9723575122888533 2.437023704248881,-4.658117936817313 c1.1793853247626465,-0.5473720472309235 1.9423526083176288,-1.6948529834525612 1.9423526083176288,-2.9905426301370572 v-3.223312138594061 c0,-0.7874156028272095 -0.2962437071678691,-1.5530090642365746 -0.8253834105368925,-2.1540272091196986 v-4.243497249878275 c0.04844236720984029,-0.4728130640532898 0.21985382041388982,-3.135114317030274 -1.754172643387096,-5.3318765530932515 C34.135689683098434,11.87398358696994 31.356774656426254,10.905626061553107 27.592243773830795,10.905626061553107 s-6.543445909267637,0.9683575254168335 -8.26035519326255,2.880522667155426 c-1.974026463800986,2.1967622360629764 -1.8026150105969365,4.860882000824781 -1.754172643387096,5.3318765530932515 v4.243497249878275 c-0.5291397033690236,0.6010181448831242 -0.8253834105368925,1.3666116062924891 -0.8253834105368925,2.1540272091196986 v3.223312138594061 c0,1.0010907375435998 0.4602024884934815,1.9348965390488468 1.2473909556533835,2.565010872489097 c0.7545830276917408,2.8850689466174773 2.3066019463762344,5.069101600186711 2.880457681015879,5.809235896608591 v2.631386552635039 c0,0.7419528082067006 -0.41455487323805595,1.4238947275143299 -1.0825005903429663,1.7803230373391177 l-7.366034567850115,3.921620663965073 c-0.23569074815556845,0.1254773131526039 -0.4676551603719183,0.27095825593823136 -0.7005511565730743,0.4337150606796529 C6.888721295532962,41.63120117787766 3.8368521613130326,35.47553878626078 3.8368521613130326,28.636115963551468 zM25.826892122626045,51.75121926040287 c-0.10154265434370342,-0.007274047139281381 -0.20308530868740704,-0.013638838386152609 -0.3036963790463058,-0.022731397310254375 c-0.5906242463661294,-0.05091832997496979 -1.1793853247626465,-0.11911252190573274 -1.7634884832351423,-0.2127658788239804 c-0.0242211836049201,-0.0036370235696407045 -0.04844236720984029,-0.009092558924101742 -0.0717319668299556,-0.012729582493742444 c-1.2362119478357283,-0.20185480811505835 -2.451929048005755,-0.4982722290407749 -3.6359722926924247,-0.885615239207509 c-0.03167385548335715,-0.010001814816511918 -0.06334771096671417,-0.020912885525433994 -0.09502156645007129,-0.03182395623435617 c-1.1523693892033129,-0.38188747481227336 -2.2730649229232682,-0.8537912829731534 -3.3546339292814302,-1.4038910978813062 c-0.06241612698190955,-0.03182395623435617 -0.12576383794862347,-0.06182940068389183 -0.1872483809457288,-0.09365335691824797 c-0.4797657521743783,-0.25004537041279723 -0.9492840805159055,-0.5210036263510288 -1.4113497369789965,-0.8028729529981834 c-0.13321650982706074,-0.08183303031691568 -0.2645698516845118,-0.16457531652624152 -0.3959231935419633,-0.24822685862797728 c-0.42480229707090666,-0.27095825593823136 -0.8430835062481806,-0.5528275825853854 -1.2511172915926023,-0.8510635152959214 c-0.04192127931620784,-0.030914700341945902 -0.08197939066280645,-0.06364791246871218 -0.12390066997901426,-0.09456261281065813 c0.02981068751374781,-0.01636660606338315 0.059621375027495635,-0.03273321212676634 0.09036364652604817,-0.04909981819014947 l7.366034567850115,-3.921620663965073 c1.2660226353494761,-0.6746678721683492 2.0532111025093784,-1.968539007068023 2.0532111025093784,-3.37697638441138 v-3.2760489803538513 l-0.2170590684594763,-0.25277313809002766 c-0.019563263680896986,-0.022731397310254375 -2.027126750934849,-2.394980020608394 -2.7938203704290503,-5.651025371329221 l-0.08477414261722054,-0.36006533339442887 l-0.31767013881837497,-0.2009455522226482 c-0.44809189669102145,-0.2827785825395641 -0.7163880843147515,-0.7555916465928542 -0.7163880843147515,-1.2656842022349601 v-3.223312138594061 c0,-0.4228039899707309 0.18445362899131446,-0.8165117913843345 0.5188922795361731,-1.112019956417641 l0.3074227149855246,-0.27095825593823136 v-5.0645553207246605 l-0.00838425586324157,-0.11911252190573274 c-0.0027947519544138607,-0.021822141417844148 -0.2776120274717764,-2.2085825626643087 1.300491242787247,-3.9643556909083513 C22.080061335741867,13.485185028320766 24.38759486610291,12.724137846373452 27.592243773830795,12.724137846373452 c3.190675147955817,0 5.493550758392834,0.754682390700443 6.843415952374725,2.242225030683485 c1.5762401022894146,1.7375880103958394 1.3181913384985349,3.9652649468007617 1.3163281705289256,3.9834500646489643 l-0.00838425586324157,5.183667842630393 l0.3074227149855246,0.27095825593823136 c0.33443865054485866,0.29459890914089637 0.5188922795361731,0.6892159664469106 0.5188922795361731,1.112019956417641 v3.223312138594061 c0,0.6583012661049656 -0.442502392782194,1.2329509901081939 -1.1002006860542541,1.4311687746536115 l-0.4639288244327004,0.14002540743116687 l-0.14905343756873923,0.4509909226354458 c-0.5487029670499202,1.6666660507878461 -1.3312335142857994,3.2051270207458575 -2.3252336260723268,4.575375650607987 c-0.24128025206439654,0.3336969125145333 -0.4788341681895742,0.6319328452250706 -0.6856458128162012,0.8619745860048442 l-0.2310328282315452,0.2573194175520788 V39.81996344019658 c0,1.4429891012549438 0.8086148988104087,2.74140651561667 2.1128324775368736,3.4060725729685055 C33.678281946559366,43.66066032973716 33.64753967506081,44.10074018166368 33.64753967506081,44.548094080729484 c0,0.26550272058377034 0.009315839848046204,0.5300961852751305 0.027015935559334004,0.7937803940740806 c0.006521087893632354,0.09365335691824797 0.019563263680896986,0.1863974579440854 0.02887910352894318,0.27914155896992304 c0.00838425586324157,0.08728856567137662 0.01676851172648316,0.17366787545034293 0.027015935559334004,0.26095644112171956 c0.009315839848046204,0.08183303031691568 0.013973759772069298,0.16457531652624152 0.02515276758972472,0.24549909095074676 c0.021426431650506277,0.15457350170972933 0.05216870314905876,0.3073284916346394 0.08011622269319722,0.4609927374519574 c0.01863167969609237,0.10456442762716994 0.03260543946816169,0.21003811114675008 0.054031871118667994,0.31369328288150966 c0,0 0.0018631679696092405,0.007274047139281381 0.0027947519544138607,0.010911070708922074 c0.005589503908827717,0.027277676772305214 0.013973759772069298,0.05273684175979011 0.019563263680896986,0.08001451853209521 c0.02887910352894318,0.13275136029188514 0.06334771096671417,0.26459346469136025 0.09688473441968053,0.396435569090836 c0.02328959962011549,0.09183484513342757 0.04192127931620784,0.1836696902668549 0.06707404690593274,0.2745952795078723 c0.02235801563531092,0.08001451853209521 0.05123711916425413,0.1573012693869599 0.07545830276917408,0.2364065320266449 c0.03167385548335715,0.10547368351958014 0.06521087893632344,0.21003811114675008 0.10061107035889877,0.31369328288150966 c0.02235801563531092,0.06546642425353265 0.03912652736179401,0.13184210439947522 0.06241612698190955,0.19639927276059754 c0.06521087893632344,0.18276043437444503 0.1397375977206929,0.3627931010716589 0.21426431650506256,0.541916511876462 c0.00093158398480462,0.0027277676772305254 0.0018631679696092405,0.004546279462050864 0.0027947519544138607,0.007274047139281381 c0.05682662307308182,0.13638838386152616 0.1164479981005773,0.27004900004582133 0.17793254109768233,0.40370961623011664 c0.045647615255426384,0.0991088922727089 0.09315839848046192,0.19821778454541808 0.14160076569030197,0.2964174209257167 c0.03167385548335715,0.06455716836112226 0.059621375027495635,0.1300235926146545 0.09222681449565745,0.19367150508336672 c0.021426431650506277,0.04182577105086795 0.04657919924023107,0.08183303031691568 0.06893721487554176,0.12365880136778344 c0.07825305472358811,0.14820871046285836 0.16116402937119922,0.2927803973560761 0.24593817198841939,0.4364428283568833 c0.02515276758972472,0.042735026943278194 0.04751078322503562,0.08728856567137662 0.07266355081476025,0.1300235926146545 C32.82681418444794,51.392063182900856 30.22862645082786,51.82214122001086 27.592243773830795,51.82214122001086 C27.001619527464666,51.82214122001086 26.41285844906815,51.793954287346146 25.826892122626045,51.75121926040287 zM45.75813147752085,54.54990889724138 c-3.4105289683697073,0 -6.42886107913667,-1.6412068858003614 -8.29296063273071,-4.149843892960027 c-0.07732147073878351,-0.10365517173475974 -0.14719026959912992,-0.21003811114675008 -0.21985382041388982,-0.31551179466633 c-0.05030553517944947,-0.07274047139281382 -0.10340582231331266,-0.14366243100080744 -0.15091660553834846,-0.21731215828603148 c-0.040058111346598674,-0.0627386565763021 -0.07918463870839262,-0.1254773131526039 -0.11831116607018662,-0.1891252256213159 c-0.04192127931620784,-0.0672849360383529 -0.07918463870839262,-0.13638838386152616 -0.1192427500549913,-0.20458257579228886 c-0.06427929495151885,-0.11092921887404106 -0.13321650982706074,-0.21913067007085163 -0.19283788485455616,-0.3318784007297139 c-0.0437844472858171,-0.08274228620932576 -0.08291097464761114,-0.16821234009588232 -0.1248322539638191,-0.25277313809002766 c-0.011179007817655441,-0.022731397310254375 -0.021426431650506277,-0.04637205051291891 -0.03260543946816169,-0.06910344782317328 c-0.0698687988603464,-0.14275317510839727 -0.14253234967510683,-0.28368783843197376 -0.2058800606418207,-0.42916878121760244 c-0.03353702345296633,-0.07728675085486472 -0.05868979104269103,-0.1573012693869599 -0.09036364652604817,-0.23458802024182449 c-0.0717319668299556,-0.18094192258962463 -0.14439551764471567,-0.3618838451792497 -0.2058800606418207,-0.5473720472309235 c-0.02887910352894318,-0.08637930977896643 -0.05123711916425413,-0.17548638723516363 -0.07732147073878351,-0.26277495290653974 c-0.00838425586324157,-0.027277676772305214 -0.015836927741678494,-0.05364609765220027 -0.02328959962011549,-0.08001451853209521 c-0.05216870314905876,-0.18094192258962463 -0.10247423832850806,-0.3627931010716589 -0.14439551764471567,-0.5482813031233342 c-0.013042175787264687,-0.05728312122184101 -0.02328959962011549,-0.11547549833609203 -0.03540019142257555,-0.17366787545034293 c-0.011179007817655441,-0.05455535354461047 -0.02328959962011549,-0.11001996298163105 -0.03353702345296633,-0.16457531652624152 c-0.03819494337698936,-0.20185480811505835 -0.0698687988603464,-0.4055281280149373 -0.0959531504348758,-0.6110199596996365 c-0.0027947519544138607,-0.023640653202664508 -0.005589503908827717,-0.047281306405329 -0.00838425586324157,-0.07183121550040365 c-0.00838425586324157,-0.07455898317763417 -0.020494847665701647,-0.14911796635526844 -0.027015935559334004,-0.22367694953290262 C35.53027090835095,45.16729734346081 35.51070764467005,44.859968851826174 35.51070764467005,44.548094080729484 c0,-0.2864156061092048 0.019563263680896986,-0.5691941886487681 0.0437844472858171,-0.8492450035111025 c0.026084351574529378,-0.26823048826100093 0.06241612698190955,-0.5446442795536947 0.11365324614616361,-0.8356061651249485 l0.06893721487554176,-0.3937078014136051 C36.71990365694645,37.948714813616455 40.83843645376766,34.54627926421759 45.75813147752085,34.54627926421759 c0.41548645722286076,0 0.8291097464761111,0.030914700341945902 1.2408698677597514,0.08092377442450555 c0.0940899824652666,0.010911070708922074 0.1853852129761192,0.028186932664715374 0.27854361145658074,0.04182577105086795 c0.34002815445368606,0.050009074082559536 0.6781931409377622,0.11547549833609203 1.0117002074978154,0.19912704043782808 c0.0698687988603464,0.017275861955793323 0.1397375977206929,0.03364246801917653 0.20960639658103947,0.05273684175979011 c0.8216570745976741,0.22458620542531293 1.6162982136360144,0.5464627913385135 2.363428569449316,0.9665390136320138 C53.93091777621177,37.61683641288674 56.00555531037165,40.847422598620085 56.00555531037165,44.548094080729484 C56.00555531037165,50.062731068197174 51.408188345360855,54.54990889724138 45.75813147752085,54.54990889724138 z"/></g></g></svg>