<svg xmlns="http://www.w3.org/2000/svg" xmlns:xlink="http://www.w3.org/1999/xlink" width="430" height="205" viewBox="0 0 430 205">
    <defs>
        <path id="a" d="M0 .513h439.302V124.74H0z"/>
    </defs>
    <g fill="none" fill-rule="evenodd">
        <path fill="#27397C" d="M324.81 84.631c1.869 10.611-13.16 10.784-13.16 10.784l1.615-14.18c2.89-.087 5.773-3.23 4.331-5.265-1.442-2.036-3.823-.507-3.823-.507-5.362 3.142-14.558 1.803-20.871-2.117-5.276-3.273-8.537-8.344-5.87-14.1 5.86-12.652 22.923-1.02 22.923-1.02 18.506-2.209 14.348 12.058 14.348 12.058 13.927 7.382.508 14.347.508 14.347"/>
        <path fill="#FFC4B2" d="M265.497 141.131s-8.932 9.602-10.098 22.815l-.092-.005-.2-.01-13.58-3.5-9.175-2.36c1.01-3.882 7.743-13.78 15.222-23.7.33-.438.664-.88 1-1.318 1.23.254 12.905 2.786 16.923 8.078"/>
        <path fill="#FFD2BD" d="M390.782 173.273l-18.1-.687-11.108-.42-16.34-21.968c1.673-3.72 6.48-11.858 16.777-12.982 13.576 15.736 28.771 36.057 28.771 36.057M322.445 108.861c-2.78 2.08-10.06 6.604-20.827 6.604-11.033 0-17.788-7.11-20.148-10.114 7.954-1.398 16.513-2.214 16.513-2.214l.935-9.51s-9.17 1.87-11.719-3.65c-2.116-4.59 3.689-13.694 5.703-16.632 6.312 3.92 15.509 5.26 20.87 2.117 0 0 2.382-1.528 3.824.508 1.441 2.035-1.442 5.178-4.33 5.265l-1.615 14.18-.594 9.677s4.881 1.34 11.388 3.77"/>
        <path fill="#5D686E" d="M362.011 137.216c-10.298 1.124-15.104 9.261-16.778 12.982l-9.299-12.5-5.945 29.461-20.574-.885-48.53-2.095-5.486-.233c1.166-13.213 10.098-22.815 10.098-22.815-4.018-5.292-15.693-7.824-16.924-8.078 8.602-11.318 17.885-22.324 20.455-24.138 1.232-.87 3.65-1.669 6.588-2.365.006 0 .006 0 .011-.006a73.018 73.018 0 0 1 2.1-.47 80.688 80.688 0 0 1 2.625-.518c.373-.07.745-.135 1.118-.205 2.36 3.003 9.115 10.115 20.147 10.115 10.768 0 18.047-4.526 20.828-6.605 1.54.573 3.17 1.21 4.844 1.907 6.502 2.678 13.721 6.226 19.175 10.454 3.915 3.034 9.575 9.072 15.547 15.994"/>
        <path fill="#475156" d="M372.682 172.586l-11.108-.42-25.64-34.468-5.945 29.461-20.574-.885c5.163-6.329 23.544-29.635 23.544-40.581l39.723 46.893zM270.913 123.328c-7.414 14.607-9.477 33.388-10.028 40.85l-5.578-.237c6.518-32.324 15.304-40.349 15.606-40.613"/>
        <path stroke="#231F20" stroke-width=".6" d="M248.573 133.053c-.07-.016-.108-.022-.108-.022"/>
        <path fill="#FFD2BD" d="M95.813 115.19c-9.931-1.15-21.19-3.121-24.56-6.35-6.41-6.146-26.184-41.947-28.188-50.231 0 0-9.482-1.604-11.89-9.753-2.403-8.148 11.356-13.629 11.356-13.629s-19.64-4.541-20.71-9.353c-.194-.864.298-1.641 1.345-2.203 4.785-2.56 21.25-.708 38.335 17.037 0 0 2.673-10.692 10.957-10.022 8.283.67-3.872 10.557-3.872 10.557s3.737 10.151-1.74 11.885l13.226 42.886s3.46.454 8.31 1.237c2.743 4.325 6.21 10.886 7.43 17.94"/>
        <path fill="#FFC4B2" d="M142.928 160.269l-10.887.14s-13.49-37.676-19.37-43.82c0 0-35.002-1.604-41.418-7.75-6.41-6.145-26.184-41.947-28.188-50.23 0 0-9.482-1.604-11.89-9.752-2.403-8.15 11.356-13.63 11.356-13.63s-19.64-4.542-20.71-9.353c-.194-.864.298-1.642 1.345-2.204 3.176 2.565 10.935 8.09 21.935 11.108 0 0-12.036 8.894-6.83 15.077 5.091 6.048 14.239-.47 14.633-.75-.345.302-8.084 7.397-1.296 23.312 6.945 16.27 17.356 31.778 27.664 36.768 10.304 4.99 28.96 4.881 36.229 4.773 0 0 17.042 35.992 27.427 46.31"/>
        <path fill="#FFD2BD" d="M246.72 6.488c-7.084 1.88-10.55 3.256-10.55 3.256s8.386 3.18 8.386 10.12c0 6.939-10.92 8.386-10.92 8.386s-14.385 46.64-35.682 59.535a2886.925 2886.925 0 0 1-9.531 5.75c-1.518-5.248-5.584-8.736-8.365-10.588 7.82-5.347 15.341-9.953 15.341-9.953l14.456-46.191s-5.853-7.447-3.828-13.376c0 0-8.894-5.06-7.955-9.034.94-3.975 10.05-2.527 14.748 6.577 0 0 19.515-10.265 29.419-10.913 9.904-.654 11.567 4.552 4.482 6.43"/>
        <path fill="#5D686E" d="M177.698 130.488s1.61 21.757-2.306 29.354l-32.464.427-10.887.14s-13.489-37.675-19.37-43.82c0 0-7.889-.362-16.858-1.399-1.22-7.053-4.688-13.614-7.43-17.939 5.75.93 13.461 2.317 19.655 3.964 3.019.794 5.676 1.657 7.571 2.549l11.896-.546h.006c2.203 2.457 8.683 8.786 15.951 7.468 8.349-1.512 11.988-10.233 11.265-14.234 7.938-3.786 19.488-9.493 24.553-12.976.26-.179.519-.357.778-.53 2.781 1.853 6.847 5.342 8.365 10.59-14.408 8.672-20.51 12.204-20.51 12.204l1.955 3.11s8.057-.69 11.74 5.638c3.683 6.335-3.91 16-3.91 16"/>
        <path fill="#1F3368" d="M152.016 69.138c-6.178.649-18.636 5.282-18.636 5.282-2.592-3.089-5.734-.497-5.383 2.392.35 2.894 4.935 2.543 4.935 2.543 3.786 3.192 5.924 23.34 5.924 23.34l-11.345.523h-.006l-11.896.546c-1.895-.891-4.552-1.755-7.57-2.55.717-4.697 3.687-17.128 15.314-20.973 0 0-7.269-3.186-3.186-14.337C124.249 54.76 134 58.241 134 58.241s8.964-17.522 25.289-13.343c16.33 4.185-1.502 23.49-7.274 24.24"/>
        <path stroke="#2D457A" stroke-linecap="round" stroke-linejoin="round" stroke-width="1.08" d="M159.427 48.23s-1.953 18.982-20.176 19.959M156.39 49.858s-3.037 12.907-13.559 13.558c-10.522.65-21.802 5.966-15.837 15.077M115.97 102.603c-.701-11.859 9.613-21.509 9.613-21.509M125.642 102.246c-.162-7.495 3.305-17.895 3.305-17.895M130.788 79.253s5.816 12.695 5.584 22.502"/>
        <path stroke="#2D457A" stroke-linecap="round" stroke-linejoin="round" stroke-width="1.08" d="M124.825 64.718s4.99-6.942 12.583-6.183c7.592.76 17.246-5.098 17.246-10.413M142.289 53.329s4.121-6.725 9.762-6.834"/>
        <path fill="#FFD2BD" d="M157.8 85.236c-3.338 5.735-12.658 3.489-12.658 3.489l1.393 11.561s3.45-1.577 8.192-3.834c.723 4.001-2.916 12.722-11.265 14.234-7.268 1.318-13.748-5.01-15.951-7.468l11.345-.524s-2.138-20.147-5.924-23.339c0 0-4.584.352-4.935-2.543-.351-2.889 2.791-5.48 5.383-2.391 0 0 12.458-4.634 18.636-5.283 0 0 9.12 10.37 5.783 16.098"/>
        <path fill="#475156" d="M177.696 130.49s-8.715.98-13.804-5.594c0 0 10.899 4.104 14.42-.566 3.463-4.594 2.268-12.797-8.444-15.481"/>
        <path fill="#FFC4B2" d="M217.432 10.85c8.899 1.933 9.158 11.346 9.158 11.346s-2.257-7.28-13.83-11.184c0 0 19.516-10.265 29.42-10.913 3.607-.238 6.124.302 7.517 1.177-10.206-2.16-32.265 9.574-32.265 9.574M214.726 25.419S202 66.232 196.356 69.791l13.44-42.946s-5.853-7.446-3.828-13.376c0 0-8.894-5.06-7.955-9.034a2.427 2.427 0 0 1 1.08-1.518c1.188 2.77 4.077 8.198 8.673 8.575 0 0-1.81 11.735 6.96 13.927"/>
        <path fill="#475156" d="M327.29 110.768c-2.97 2.592-12.318 9.59-26.607 9.59-13.197 0-21.675-9.229-25.067-13.808.006 0 .006 0 .011-.005a73.018 73.018 0 0 1 2.1-.47 79.267 79.267 0 0 1 2.625-.518c.373-.07.745-.135 1.118-.206 2.36 3.003 9.115 10.115 20.147 10.115 10.768 0 18.047-4.526 20.828-6.605 1.54.573 3.17 1.21 4.844 1.907"/>
        <path fill="#475156" d="M142.928 160.27l-10.887.14s-13.49-37.677-19.37-43.821c0 0-.156-.006-.448-.022-.032 0-.065-.005-.102-.005-.054-.006-.12-.006-.184-.011-.06-.005-.119-.005-.184-.01-.08-.006-.167-.006-.253-.012-.103-.011-.206-.016-.32-.021-.134-.006-.274-.016-.426-.022-.124-.011-.253-.016-.388-.027-.076-.005-.157-.005-.243-.01l-.476-.033-.507-.033c-.173-.016-.357-.026-.546-.038-.048 0-.097-.005-.145-.01-.184-.01-.368-.027-.557-.038a289.01 289.01 0 0 1-5.438-.43c-.259-.024-.523-.05-.793-.072-.319-.027-.637-.06-.961-.092l-.665-.065c-.178-.016-.356-.032-.534-.054-.324-.027-.648-.064-.978-.097l-.626-.065c-.578-.064-1.161-.13-1.75-.194-.113-.011-.226-.027-.334-.037a36.978 36.978 0 0 0-.41-2.015c7.964.907 15.918.848 20.098.782 0 0 17.042 35.992 27.427 46.311"/>
        <path fill="#FFC4B2" d="M372.682 172.586l-11.108-.42-16.34-21.968a25.346 25.346 0 0 1 3.596-5.773l23.852 28.161z"/>
        <path fill="#27397C" d="M239.22 163.124s18.686-22.545 54.638-19.092c35.95 3.452 49.966 27.623 49.966 27.623l-104.605-8.53zm109.276 5.822c-.63-1.085-15.848-26.614-54.123-30.29a83.298 83.298 0 0 0-7.924-.384c-33.259 0-50.662 20.532-51.387 21.406l-6.62 7.985 125.232 10.213-5.178-8.93z"/>
        <path fill="#FFD2BD" d="M271.799 150.905c-4.887.06-9.261-6.815-9.261-6.815-9.834 19.284-17.998 8.932-17.998 8.932l-3.014 7.41-9.174-2.36c1.01-3.884 7.743-13.782 15.222-23.702 2.123-.14 4.671-1.107 7.636-3.585 9.839-8.23 16.648 6.362 18.257 9.639 1.61 3.278 3.213 10.416-1.668 10.481"/>
        <path fill="#6fbe73" d="M69.653 173.524s-5.739-6.674-17.35-6.274c-11.612.401-48.182 6.274-51.919-5.605-3.737-11.879 48.982-21.221 66.467 1.869l2.802 10.01zM359.65 173.524s5.739-6.674 17.35-6.274c11.612.401 48.181 6.274 51.919-5.605 3.737-11.879-48.983-21.221-66.467 1.869l-2.802 10.01z"/>
        <g transform="translate(-5 156.905)">
            <mask id="b" fill="#fff">
                <use xlink:href="#a"/>
            </mask>
            <path fill="#6fbe73" d="M439.281 101.288c-.005-.249-.005-.492-.01-.735 0-.167 0-.334-.006-.502v-.016c-.124-6.248-.46-10.26-.46-10.26s-1.236-3.715-5.95-5.206V48.864s-.956-29.797-59.19-37.503a156.474 156.474 0 0 0-3.131-.383 48.6 48.6 0 0 0-.41-.049c-1.264-.14-2.523-.28-3.765-.42a74.034 74.034 0 0 0-1.085-.12h-.005c-.173-.021-.346-.043-.519-.059-.642-.07-1.285-.146-1.922-.216-55.234-6.107-90.1-8.692-132.971-9.513V.513H209.446V.6c-42.872.82-77.738 3.406-132.971 9.513-.637.07-1.28.146-1.922.216-.174.016-.346.038-.519.06h-.005c-.362.037-.724.075-1.086.118-1.242.14-2.5.281-3.764.421-.14.017-.275.032-.41.05-1.064.117-2.106.247-3.132.382-58.233 7.706-59.19 37.503-59.19 37.503V84.57c-4.713 1.49-5.95 5.206-5.95 5.206s-.335 4.012-.46 10.26v.016c-.004.168-.004.335-.004.502-.006.243-.006.486-.011.735-.016.993-.022 2.036-.022 3.12 0 8.68 16.616 6.2 16.616 6.2 40.646 7.934 147.786 12.092 192.83 13.535v.597s3.72-.091 10.205-.283c6.485.192 10.206.283 10.206.283v-.597c45.043-1.443 152.184-5.601 192.83-13.535 0 0 16.616 2.48 16.616-6.2 0-1.084-.006-2.127-.022-3.12" mask="url(#b)"/>
        </g>
        <path fill="#FFC768" d="M51.8 203.01c0 8.353-6.771 15.125-15.124 15.125-8.353 0-15.124-6.772-15.124-15.124 0-8.354 6.771-15.125 15.124-15.125 8.353 0 15.124 6.771 15.124 15.125M88.685 203.01c0 8.353-6.772 15.125-15.125 15.125-8.352 0-15.123-6.772-15.123-15.124 0-8.354 6.77-15.125 15.123-15.125s15.125 6.771 15.125 15.125"/>
        <path fill="#EDB25D" d="M47.537 213.54a15.079 15.079 0 0 1-10.86 4.595c-8.354 0-15.125-6.771-15.125-15.125a15.102 15.102 0 0 1 7.662-13.154 15.099 15.099 0 0 0-4.266 10.53c0 8.353 6.772 15.125 15.126 15.125 2.716 0 5.26-.718 7.463-1.971M84.419 213.54a15.079 15.079 0 0 1-10.86 4.595c-8.353 0-15.125-6.771-15.125-15.125a15.102 15.102 0 0 1 7.663-13.154 15.096 15.096 0 0 0-4.266 10.53c0 8.353 6.771 15.125 15.125 15.125 2.71 0 5.26-.718 7.463-1.971"/>
        <path fill="#00B983" d="M418.686 201.157s5.701 32.893-67.98 26.315c0 0 81.576 14.473 67.98-26.315M10.617 201.157s-5.702 32.893 67.98 26.315c0 0-81.576 14.473-67.98-26.315M224.857 188.37c-3.791-.15-16.622-.15-20.412 0-30.586 1.265-83.187 5.93-80.347 23.135 2.76 16.734 57.267 19.185 90.553 19.11h.442c33.324.054 87.362-2.452 90.11-19.11 2.84-17.205-49.76-21.87-80.346-23.134M359.748 167.235c-.464.07-1.063.163-1.792.275-14.683 2.247-81.724 12.091-133.1 12.853a363.2 363.2 0 0 1-10.206.032 363.2 363.2 0 0 1-10.206-.032C153.07 179.6 86.028 169.757 71.345 167.51l-1.793-.275c-.653-.102-1.036-.162-1.112-.172.194.075.389.156.589.231h.005c.702.276 1.42.54 2.155.806 32.194 11.523 96.654 14.725 133.255 15.6 3.71.086 7.134.151 10.206.195 3.073-.044 6.497-.109 10.206-.195 36.602-.875 101.061-4.077 133.256-15.6.735-.266 1.453-.53 2.155-.806h.005c.2-.075.394-.156.589-.231-.076.01-.46.07-1.113.172"/>
        <path fill="#FFC768" d="M377.502 203.01c0 8.353 6.772 15.125 15.125 15.125 8.352 0 15.124-6.772 15.124-15.124 0-8.354-6.772-15.125-15.124-15.125-8.353 0-15.125 6.771-15.125 15.125M340.618 203.01c0 8.353 6.772 15.125 15.124 15.125 8.353 0 15.124-6.772 15.124-15.124 0-8.354-6.771-15.125-15.124-15.125-8.352 0-15.124 6.771-15.124 15.125"/>
        <path fill="#EDB25D" d="M381.766 213.54a15.079 15.079 0 0 0 10.86 4.595c8.353 0 15.125-6.771 15.125-15.125a15.102 15.102 0 0 0-7.663-13.154 15.099 15.099 0 0 1 4.266 10.53c0 8.353-6.771 15.125-15.125 15.125-2.716 0-5.26-.718-7.463-1.971M344.884 213.54a15.079 15.079 0 0 0 10.86 4.595c8.353 0 15.125-6.771 15.125-15.125a15.102 15.102 0 0 0-7.663-13.154 15.099 15.099 0 0 1 4.266 10.53c0 8.353-6.771 15.125-15.125 15.125-2.71 0-5.26-.718-7.463-1.971"/>
        <path fill="#00B983" d="M342.833 87.304H86.47l-23.09 81.949 7.074 1.601 20.42-76.743H338.43l20.42 76.743 7.074-1.601z"/>
    </g>
</svg>
