<svg xmlns="http://www.w3.org/2000/svg" width="1280" height="640" preserveAspectRatio="xMidYMid meet" version="1.0"><rect id="backgroundrect" width="100%" height="100%" x="0" y="0" fill="none" stroke="none"/><metadata>Created by potrace 1.15, written by Peter Selinger 2001-2017</metadata><g class="currentLayer"><title>Layer 1</title><g id="svg_1" fill="#d23b38" fill-opacity="1" stroke="#242424" stroke-opacity="1" class="selected" transform="translate(0,640) scale(0.10000000149011612,-0.10000000149011612)"><path id="svg_2" fill="#d23b38" stroke="#242424" stroke-opacity="1" d="M7390 6279 c-1178 -49 -2139 -331 -2955 -866 -318 -210 -555 -408 -996 -836 -333 -323 -453 -431 -534 -478 -130 -76 -460 -156 -1005 -243 -382 -61 -544 -108 -785 -226 -386 -189 -659 -437 -893 -814 -197 -315 -247 -517 -212 -851 47 -459 251 -750 586 -835 70 -18 111 -20 427 -20 l349 0 -6 33 c-112 533 49 1074 434 1457 230 231 485 370 807 443 85 19 128 22 323 22 252 0 335 -13 533 -81 464 -162 835 -539 987 -1004 57 -173 80 -317 80 -503 0 -134 -17 -302 -36 -351 -6 -15 160 -16 2076 -16 l2082 0 -6 23 c-42 153 -46 477 -6 660 107 501 436 917 897 1133 116 55 288 107 419 128 144 23 381 21 526 -3 698 -120 1230 -682 1319 -1395 14 -118 7 -357 -16 -465 -8 -41 -13 -76 -11 -78 5 -6 197 17 278 33 397 78 660 313 729 649 19 93 20 136 17 1258 l-3 1162 -23 75 c-38 123 -96 222 -177 303 -78 79 -144 122 -257 169 -70 30 -82 31 -263 38 -278 11 -467 56 -674 159 -133 67 -195 111 -436 307 -440 357 -618 480 -895 620 -491 247 -1055 362 -1935 394 -299 11 -469 11 -745 -1z m1551 -659 c411 -41 890 -217 1254 -461 499 -335 640 -690 380 -955 -142 -143 -369 -254 -619 -302 -81 -15 -168 -17 -761 -17 -663 0 -671 0 -716 21 -53 25 -92 71 -109 129 -8 29 -10 197 -8 615 4 514 6 581 22 635 52 176 163 294 311 331 64 16 117 17 246 4z m-1487 -54 c76 -37 140 -101 174 -174 l27 -57 3 -558 c2 -358 -1 -578 -8 -615 -20 -109 -95 -233 -161 -268 -24 -12 -233 -14 -1494 -14 l-1466 0 -77 26 c-190 63 -279 170 -252 300 21 101 127 242 329 436 422 407 1012 695 1789 873 273 62 495 84 852 81 l225 -1 59 -29z"/><path id="svg_3" fill="#d23b38" stroke="#242424" stroke-opacity="1" d="M2710 2815 c-289 -49 -538 -179 -746 -390 -187 -189 -308 -418 -365 -688 -29 -136 -31 -369 -5 -507 95 -493 439 -888 909 -1045 273 -91 576 -93 849 -4 491 159 842 575 925 1094 19 121 13 360 -12 475 -56 258 -172 473 -357 665 -209 218 -465 352 -763 400 -108 18 -331 18 -435 0z m385 -722 c221 -55 402 -237 460 -462 21 -81 21 -236 0 -316 -44 -173 -177 -336 -335 -414 -159 -78 -319 -90 -486 -37 -314 100 -506 438 -426 754 34 133 75 205 172 302 173 174 380 232 615 173z"/><path id="svg_4" fill="#d23b38" stroke="#242424" stroke-opacity="1" d="M9990 2816 c-232 -41 -439 -133 -628 -278 -75 -58 -208 -201 -269 -290 -103 -148 -180 -330 -220 -518 -27 -126 -25 -400 4 -530 94 -421 350 -753 730 -943 190 -96 381 -140 603 -140 281 0 511 69 760 230 104 68 294 256 365 363 228 343 292 753 179 1148 -33 118 -139 328 -218 433 -125 165 -327 330 -508 413 -89 41 -200 79 -301 101 -98 23 -396 29 -497 11z m385 -722 c202 -52 381 -222 446 -424 33 -101 37 -255 10 -355 -33 -121 -84 -209 -171 -295 -154 -155 -369 -219 -582 -175 -192 41 -356 169 -441 346 -56 116 -71 188 -65 316 9 170 68 303 189 424 160 159 390 220 614 163z"/></g></g></svg>