<svg xmlns="http://www.w3.org/2000/svg" xmlns:xlink="http://www.w3.org/1999/xlink" style="enable-background:new 0 0 117.34 122.88" width="117.34" height="122.88" version="1.1" xml:space="preserve"><rect id="backgroundrect" width="100%" height="100%" x="0" y="0" fill="none" stroke="none"/><style type="text/css">.st0{fill-rule:evenodd;clip-rule:evenodd}</style><g class="currentLayer"><title>Layer 1</title><g id="svg_1" fill="#d23b38" fill-opacity="1" class="selected"><path id="svg_2" fill="#d23b38" d="M85.14,14.83L43.26,40.28h11.91l30.92-18.79l4.54-2.76l13.09,21.55h7.62c1.66,0,3.16,0.68,4.25,1.76l0,0 c1.09,1.09,1.77,2.59,1.77,4.24v70.59c0,1.65-0.68,3.15-1.76,4.23v0.01c-1.09,1.09-2.59,1.76-4.25,1.76l-105.33,0 c-1.66,0-3.16-0.67-4.25-1.76v-0.01C0.68,120.02,0,118.52,0,116.88V46.28c0-1.65,0.68-3.16,1.76-4.24 c1.09-1.09,2.59-1.76,4.25-1.76h2.5L73.53,0.77v0C74.36,0.27,75.3,0,76.27,0c0.42,0,0.84,0.05,1.25,0.15 c1.36,0.33,2.54,1.19,3.26,2.39v0l6.63,10.91L85.14,14.83L85.14,14.83L85.14,14.83z M5.89,45.62c-0.23,0.25-0.42,0.53-0.56,0.84 v8.69h106.68v-8.87c0-0.19-0.07-0.36-0.19-0.47h-0.01c-0.12-0.12-0.29-0.2-0.48-0.2H6.01C5.97,45.61,5.93,45.61,5.89,45.62 L5.89,45.62z M15.98,84.71h19.05v7.13H15.98V84.71L15.98,84.71z M15.98,101.59h53.25v6.43H15.98V101.59L15.98,101.59z M86.21,84.71 h19.05v7.13H86.21V84.71L86.21,84.71z M62.8,84.71h19.05v7.13H62.8V84.71L62.8,84.71z M39.39,84.71h19.05v7.13H39.39V84.71 L39.39,84.71z M112.01,75.14H5.33v41.73c0,0.19,0.07,0.36,0.2,0.48l0.01,0c0.13,0.13,0.3,0.2,0.47,0.2l105.33,0 c0.18,0,0.35-0.08,0.48-0.2l0,0c0.13-0.13,0.2-0.3,0.2-0.48v0V75.14L112.01,75.14z" class="st0"/></g></g></svg>