<svg xmlns="http://www.w3.org/2000/svg" xmlns:xlink="http://www.w3.org/1999/xlink" style="enable-background:new 0 0 486.201 486.201" width="486.201" height="486.201" version="1.1" xml:space="preserve"><rect id="backgroundrect" width="100%" height="100%" x="0" y="0" fill="none" stroke="none"/><g class="currentLayer"><title>Layer 1</title><g id="svg_1" fill="#dd6563" fill-opacity="1" class="selected"><g id="svg_2" fill="#dd6563"><g id="svg_3" fill="#dd6563"><path id="svg_4" fill="#dd6563" d="M308.3,259.7c0-7.3-6-13.4-13.4-13.4h-225c-7.3,0-13.4,6-13.4,13.4s6,13.4,13.4,13.4H295 C302.3,273.1,308.3,267.1,308.3,259.7z"/></g><g id="svg_5" fill="#dd6563"><path id="svg_6" fill="#dd6563" d="M296.1,192.9H170.5c-7.3,0-13.4,6-13.4,13.4c0,7.3,6,13.4,13.4,13.4h125.6c7.3,0,13.4-6,13.4-13.4 C309.4,198.9,303.4,192.9,296.1,192.9z"/></g><g id="svg_7" fill="#dd6563"><path id="svg_8" fill="#dd6563" d="M338,415.4c0,16.5-13.4,29.9-29.9,29.9H56.7c-16.5,0-29.9-13.4-29.9-29.9v-345c0-16.5,13.4-29.9,29.9-29.9h177.2v43.4 c0,31.3,25.4,56.7,56.7,56.7H338v72.3c0.4-0.6,0.8-1.3,1.1-1.9c0.7-1.1,1.5-2.4,2.4-3.8c7.3-12,18.9-31.3,21.2-35 c0.6-1.1,1.3-2.1,2-3.2v-36.5c0-3.5-0.7-6.9-2-10c-1.4-3.2-3.3-6-5.8-8.4l-96.7-93c-2.4-2.3-5.2-4.1-8.2-5.3 c-3.1-1.2-6.3-1.9-9.6-1.9H56.7C25.4,13.9,0,39.3,0,70.6v345c0,31.3,25.4,56.7,56.7,56.7h251.4c31.3,0,56.7-25.4,56.7-56.7v-66.2 c-8.6,11.6-17.5,23.1-26.7,34.3v31.7H338z"/></g><g id="svg_9" fill="#dd6563"><path id="svg_10" fill="#dd6563" d="M94,101.7c-12.1,4.6-19.5,13-20.1,26.3c-0.5,11.7,5.7,19.6,15.4,25.2c6,3.5,12.6,5.5,18.9,8.2c2.5,1,4.8,2.3,6.9,3.9 c6.1,4.9,5.1,13.2-2,16.5c-3.8,1.7-7.9,2.2-12,1.8c-6.4-0.7-12.6-2.3-18.5-5.2c-3.4-1.7-4.4-1.2-5.5,2.5 c-0.9,3.2-1.8,6.4-2.6,9.6c-1.1,4.3-0.7,5.4,3.5,7.3c5.3,2.5,10.9,3.7,16.6,4.5c4.5,0.6,4.6,0.8,4.8,5.5c0.1,2.1,0.1,4.2,0.2,6.3 c0.1,2.7,1.4,4.2,4.1,4.2c3.1,0,6.2,0,9.3-0.2c2.5-0.1,3.8-1.5,3.8-4.1c0-2.9,0.1-5.8-0.1-8.6c-0.2-2.9,1.1-4.4,3.9-5.2 c6.5-1.9,11.9-5.4,16.1-10.7c11.6-14.5,6.8-35.5-10.1-44.5c-5.3-2.8-10.9-4.9-16.5-7.2c-3.2-1.3-6.3-2.8-9-4.9 c-5.4-4.2-4.5-11.1,1.7-13.9c1.7-0.8,3.6-1.1,5.5-1.2c7.2-0.5,14.1,0.7,20.7,3.8c3.3,1.5,4.4,1,5.4-2.4c1.1-3.6,2-7.3,3-10.9 c0.7-2.4-0.2-4-2.5-5c-4.2-1.8-8.6-3.1-13.1-3.7c-5.9-0.8-5.9-0.9-6-6.8c-0.2-8.4-0.2-8.4-8.5-8.3c-1.2,0-2.4,0-3.7,0.1 c-3.9,0.2-4.6,0.9-4.6,4.8c0,1.8,0,3.5,0.1,5.3C99,99.9,99,99.8,94,101.7z"/></g><g id="svg_11" fill="#dd6563"><path id="svg_12" fill="#dd6563" d="M283.3,314.2c2.3-4.8,4.7-9.6,7.1-14.4H69.9c-7.3,0-13.4,6-13.4,13.4c0,7.3,6,13.4,13.4,13.4h207.6 C279.3,322.5,281.3,318.4,283.3,314.2z"/></g><g id="svg_13" fill="#dd6563"><path id="svg_14" fill="#dd6563" d="M56.5,366.5L56.5,366.5c0,7.3,6,13.4,13.4,13.4h186.2c2.9-9,6.1-17.8,9.7-26.7H69.9C62.5,353.2,56.5,359.2,56.5,366.5z"/></g><g id="svg_15" fill="#dd6563"><path id="svg_16" fill="#dd6563" d="M481.4,166.7L481.4,166.7l-7.6-4.4l-12.3-7.1c2-4.6,3.8-9.3,5.2-14.1c0.4-1.6,0.9-3.1,1.2-4.7 c2.2-10.9-1.6-18.4-12.5-24.9c-9.4-5.6-16.8-5-25.3,2c-5.8,4.8-10.5,10.6-14.9,16.6c-16,21.8-29.6,45.2-43.8,68.1l-17.2,28.6l0,0 c-18.6,31.5-36.1,63.6-52,96.6c-10.5,21.7-20.4,43.7-27.4,66.9c-0.7,3.2-1.6,6.5-1.9,9.8c-0.4,3.8-1.8,8.5,2.3,10.9 c4,2.3,7.5-0.9,10.7-3.2c8.6-6.2,15.8-13.9,22.7-21.8c33.7-38.5,62.4-80.5,90-123.5l0,0l21.7-34.8c9.3-15.9,19-31.5,28.2-47.4 c1.7-3,3.5-6.1,5.2-9.1l11.4,6.6l-55.6,95.7c-4.2,7.3-0.5,17,8.5,19.1c0.8,0.2,1.7-0.2,2.1-0.9L485,179.9 C487.5,175.2,486,169.4,481.4,166.7z"/></g></g></g></g></svg>