<svg xmlns="http://www.w3.org/2000/svg" xmlns:xlink="http://www.w3.org/1999/xlink" width="512" height="512" version="1.1" xml:space="preserve"><rect id="backgroundrect" width="100%" height="100%" x="0" y="0" fill="none" stroke="none"/><g class="currentLayer"><title>Layer 1</title><g id="svg_1" fill="#dd6563" fill-opacity="1"><g id="svg_2" fill="#dd6563"><path id="svg_3" fill="#dd6563" d="M136.9015537648201,192 c-42.351,0 -76.8,34.449 -76.8,76.8 c0,42.351 34.449,76.8 76.8,76.8 c42.351,0 76.8,-34.449 76.8,-76.8 C213.7015537648201,226.449 179.2525537648201,192 136.9015537648201,192 zM136.9015537648201,320 c-28.279,0 -51.2,-22.921 -51.2,-51.2 c0,-28.279 22.921,-51.2 51.2,-51.2 c28.279,0 51.2,22.921 51.2,51.2 C188.1015537648201,297.079 165.1815537648201,320 136.9015537648201,320 z"/></g></g><g id="svg_4" fill="#dd6563" fill-opacity="1"><g id="svg_5" fill="#dd6563"><path id="svg_6" fill="#dd6563" d="M213.2915537648201,366.626 c-2.219,-12.177 -12.817,-21.026 -25.19,-21.026 h-51.2 h-51.2 c-12.373,0 -22.972,8.849 -25.19,21.026 L50.3735537648201,422.4 h26.018 l9.31,-51.2 h38.4 v51.2 h25.6 v-51.2 h38.4 l9.31,51.2 h26.018 L213.2915537648201,366.626 z"/></g></g><g id="svg_7" fill="#dd6563" fill-opacity="1"><g id="svg_8" fill="#dd6563"><path id="svg_9" fill="#dd6563" d="M460.8,115.2H384c0-14.14-11.46-25.6-25.6-25.6h-25.6V64c0-14.14-11.46-25.6-25.6-25.6H204.8 c-14.14,0-25.6,11.46-25.6,25.6v25.6h-25.6c-14.14,0-25.6,11.46-25.6,25.6H51.2C22.972,115.2,0,138.172,0,166.4v256 c0,28.228,22.972,51.2,51.2,51.2h409.6c28.228,0,51.2-22.972,51.2-51.2v-256C512,138.172,489.028,115.2,460.8,115.2z M153.6,115.2 h51.2V64h102.4v51.2h51.2v25.6H153.6V115.2z M486.4,422.4c0,14.14-11.46,25.6-25.6,25.6H51.2c-14.14,0-25.6-11.46-25.6-25.6v-256 c0-14.14,11.46-25.6,25.6-25.6H128c0,14.14,11.46,25.6,25.6,25.6h204.8c14.14,0,25.6-11.46,25.6-25.6h76.8 c14.14,0,25.6,11.46,25.6,25.6V422.4z"/></g></g><g id="svg_10" fill="#dd6563" fill-opacity="1"><g id="svg_11" fill="#dd6563"><rect id="svg_12" width="204.8" height="25.6" x="256" y="192" fill="#dd6563"/></g></g><g id="svg_13" fill="#dd6563" fill-opacity="1"><g id="svg_14" fill="#dd6563"><rect id="svg_15" width="128" height="25.6" x="256" y="243.2" fill="#dd6563"/></g></g><g id="svg_16" fill="#dd6563" fill-opacity="1"><g id="svg_17" fill="#dd6563"><rect id="svg_18" width="179.2" height="25.6" x="255.174" y="294.4" fill="#dd6563"/></g></g><g id="svg_19" fill="#dd6563" fill-opacity="1"><g id="svg_20" fill="#dd6563"><rect id="svg_21" width="102.4" height="25.6" x="255.174" y="345.6" fill="#dd6563"/></g></g><g id="svg_22" fill="#dd6563" fill-opacity="1"><g id="svg_23" fill="#dd6563"><path id="svg_24" fill="#dd6563" d="M422.4,345.6c-21.205,0-38.4,17.195-38.4,38.4c0,21.205,17.195,38.4,38.4,38.4s38.4-17.195,38.4-38.4 C460.8,362.795,443.605,345.6,422.4,345.6z M422.4,396.8c-7.057,0-12.8-5.743-12.8-12.8s5.743-12.8,12.8-12.8 s12.8,5.743,12.8,12.8S429.457,396.8,422.4,396.8z"/></g></g></g></svg>