<svg xmlns="http://www.w3.org/2000/svg" xmlns:xlink="http://www.w3.org/1999/xlink" version="1.1" style="enable-background:new 0 0 389.734 389.734;" xml:space="preserve" width="389.734" height="389.734"><rect id="backgroundrect" width="100%" height="100%" x="0" y="0" fill="none" stroke="none"/>
















<g class="currentLayer" style=""><title>Layer 1</title><path d="M79.888,259.335c0,4.971-4.029,9-9,9H25.057c-4.971,0-9-4.029-9-9c0-4.971,4.029-9,9-9h45.832  C75.859,250.335,79.888,254.364,79.888,259.335z M82.246,216.923c-0.521,0.093-1.049,0.139-1.576,0.139s-1.055-0.046-1.576-0.139  c-21.848-3.887-41.858-15.436-56.346-32.521C8.079,167.103,0,145.146,0,122.576V67.214c0-7.404,4.718-17.773,27.194-25.121  c14.415-4.712,33.406-7.308,53.475-7.308c20.067,0,39.058,2.596,53.473,7.308c22.477,7.348,27.195,17.717,27.195,25.121  c0,0.055,0,0.109-0.001,0.164v55.197c0,22.57-8.078,44.527-22.747,61.826C124.102,201.487,104.092,213.037,82.246,216.923z   M143.336,122.576v-55.18c-1.782-4.252-22.617-14.61-62.667-14.61C40.608,52.786,19.773,63.15,18,67.399v55.177  c0,37.243,26.258,69.09,62.669,76.328C117.079,191.666,143.336,159.819,143.336,122.576z M70.888,282.659H50.393  c-4.971,0-9,4.029-9,9s4.029,9,9,9h20.495c4.971,0,9-4.029,9-9S75.859,282.659,70.888,282.659z M266.999,312.491  c0,4.971-4.029,9-9,9h-51.963c-4.139,19.104-21.173,33.457-41.498,33.457c-20.843,0-38.226-15.097-41.789-34.93  c-7.212-2.285-13.161-7.098-16.358-13.518c-1.6-3.223-2.408-6.637-2.408-10.158V236.33c0-4.971,4.029-9,9-9s9,4.029,9,9v60.013  c0,0.72,0.177,1.441,0.526,2.145c0.305,0.612,0.76,1.234,1.353,1.822c5.249-17.491,21.498-30.272,40.676-30.272  c20.323,0,37.357,14.354,41.497,33.454h51.963C262.97,303.491,266.999,307.52,266.999,312.491z M188.996,312.492  c0-13.484-10.971-24.455-24.457-24.455c-13.418,0-24.348,10.861-24.456,24.255c0.002,0.111,0.001,0.224,0,0.336  c0.073,13.423,11.016,24.32,24.456,24.32C178.024,336.948,188.996,325.977,188.996,312.492z M389.695,277.168l-0.026,5.813  c-0.018,3.771-0.038,8.07-0.038,13.362c0,10.763-7.741,20.082-18.654,23.626c-3.542,19.856-20.937,34.979-41.797,34.979  c-23.411,0-42.457-19.046-42.457-42.456s19.046-42.455,42.457-42.455c19.148,0,35.377,12.743,40.651,30.192  c1.128-1.144,1.8-2.492,1.8-3.887c0-5.325,0.021-9.652,0.038-13.447l0.026-5.809c0.033-7.179,0.077-17.011-0.027-21.6  c-0.074-3.287-0.163-5.984-0.394-8.317H232.819c-3.23,0-10.794,0-33.942-22.876c-7.052-6.97-21.071-21.8-23.651-28.047  c-1.897-4.594,0.289-9.856,4.883-11.754c4.524-1.868,9.696,0.223,11.665,4.674c1.223,2.193,8.543,11.172,19.151,21.725  c13.361,13.291,20.46,17.595,22.395,18.278H361.16c-2.894-2.775-6.606-6.064-11.376-10.291c-2.477-2.194-5.198-4.605-8.186-7.287  c-2.18-1.955-4.352-4.031-6.453-6.038c-3.059-2.923-6.222-5.944-9.515-8.703c-2.906-2.436-5.658-4.752-8.276-6.956  c-33.401-28.124-42.379-35.683-70.547-35.683h-62.132c-4.971,0-9-4.029-9-9s4.029-9,9-9h62.132  c34.737,0,48.614,11.685,82.141,39.913c2.606,2.194,5.347,4.502,8.241,6.927c3.744,3.137,7.123,6.365,10.391,9.487  c2.093,1.999,4.069,3.888,6.04,5.655c2.958,2.654,5.65,5.04,8.102,7.212c21.571,19.112,27.369,24.249,27.943,49.674  C389.773,259.913,389.73,269.48,389.695,277.168z M353.636,312.399c-0.051-13.441-11.002-24.362-24.457-24.362  c-13.485,0-24.457,10.971-24.457,24.455c0,13.485,10.971,24.456,24.457,24.456c13.479,0,24.446-10.961,24.457-24.438  C353.636,312.473,353.636,312.436,353.636,312.399z M329.191,303.492h-0.023c-4.971,0-8.988,4.029-8.988,9s4.041,9,9.012,9  s9-4.029,9-9S334.162,303.492,329.191,303.492z M149.254,238.168c0,4.971,4.029,9,9,9h10.125c4.971,0,9-4.029,9-9s-4.029-9-9-9  h-10.125C153.284,229.168,149.254,233.197,149.254,238.168z M164.55,303.492h-0.027c-4.971,0-8.987,4.029-8.987,9s4.043,9,9.014,9  s9-4.029,9-9S169.521,303.492,164.55,303.492z" id="svg_1" class="selected" fill-opacity="1" fill="#dd6563"/><g id="svg_2">
</g><g id="svg_3">
</g><g id="svg_4">
</g><g id="svg_5">
</g><g id="svg_6">
</g><g id="svg_7">
</g><g id="svg_8">
</g><g id="svg_9">
</g><g id="svg_10">
</g><g id="svg_11">
</g><g id="svg_12">
</g><g id="svg_13">
</g><g id="svg_14">
</g><g id="svg_15">
</g><g id="svg_16">
</g></g></svg>