<svg xmlns="http://www.w3.org/2000/svg" xmlns:xlink="http://www.w3.org/1999/xlink" version="1.1" style="enable-background:new 0 0 512 512;" xml:space="preserve" width="512" height="512"><rect id="backgroundrect" width="100%" height="100%" x="0" y="0" fill="none" stroke="none"/>
















<g class="currentLayer" style=""><title>Layer 1</title><g id="svg_1" class="selected" fill-opacity="1" fill="#4caf50">
	<g id="svg_2" fill="#4caf50">
		<path d="M448,387.925V256V124.053c24.768-8.832,42.667-32.277,42.667-60.053c0-35.307-28.715-64-64-64c-35.285,0-64,28.693-64,64    c0,27.776,17.899,51.221,42.667,60.053v110.613h-128V124.053C302.101,115.221,320,91.776,320,64c0-35.307-28.715-64-64-64    s-64,28.693-64,64c0,27.776,17.899,51.221,42.667,60.053v110.613h-128V124.053c24.768-8.832,42.667-32.277,42.667-60.053    c0-35.307-28.715-64-64-64s-64,28.693-64,64c0,27.776,17.899,51.221,42.667,60.053V256c0,11.776,9.536,21.333,21.333,21.333    h149.333v110.592C209.899,396.757,192,420.224,192,448c0,35.285,28.715,64,64,64s64-28.715,64-64    c0-27.776-17.899-51.243-42.667-60.075V277.333h128v110.592c-24.768,8.832-42.667,32.299-42.667,60.075c0,35.285,28.715,64,64,64    c35.285,0,64-28.715,64-64C490.667,420.224,472.768,396.757,448,387.925z" id="svg_3" fill="#4caf50"/>
	</g>
</g><g id="svg_4">
</g><g id="svg_5">
</g><g id="svg_6">
</g><g id="svg_7">
</g><g id="svg_8">
</g><g id="svg_9">
</g><g id="svg_10">
</g><g id="svg_11">
</g><g id="svg_12">
</g><g id="svg_13">
</g><g id="svg_14">
</g><g id="svg_15">
</g><g id="svg_16">
</g><g id="svg_17">
</g><g id="svg_18">
</g></g></svg>