<svg xmlns="http://www.w3.org/2000/svg" xmlns:xlink="http://www.w3.org/1999/xlink" version="1.1" style="enable-background:new 0 0 489.038 489.038;" xml:space="preserve" width="489.0379943847656" height="489.0379943847656"><rect id="backgroundrect" width="100%" height="100%" x="0" y="0" fill="none" stroke="none"/>
















<g class="currentLayer" style=""><title>Layer 1</title><g id="svg_1" class="selected" fill-opacity="1" fill="#d23b38" stroke="#242424" stroke-opacity="1">
	<path d="M302.7,152.181c-32.3-18.6-84.5-18.7-116.6,0c-32.1,18.6-31.9,48.9,0.4,67.5s84.5,18.6,116.5,0   C335.2,200.981,335,170.781,302.7,152.181z M287.9,181.481c-2.8,0.9-5.5,1.8-8.4,2.6c-1.7,0.5-2.7,0.6-3.5,0.2   c-0.4-0.2-0.8-0.7-1.1-1.3c-1.9-3-4.7-5.6-8.6-7.8c-0.4-0.3-0.9-0.5-1.4-0.8c-1.2-0.6-2.5-1.2-4-1.5c-5.4-1.2-10.1,0.8-9.4,4.1   c0.3,1.7,1.2,3.3,2.3,4.9c1.9,2.7,4,5.4,5.4,8.2c4.5,9-5.3,17.8-20.9,18.7c-5.7,0.3-11-0.4-16-2c-2.2-0.7-3.8-0.7-5.5,0.4   c-1.6,1-3.4,2-5.1,3c-1.5,0.9-3.1,0.9-4.7,0c-1.1-0.6-2.2-1.2-3.3-1.8c-0.8-0.4-1.5-0.9-2.3-1.4c-1.6-0.9-1.4-1.9,0.2-2.9   c1.2-0.7,2.5-1.5,3.7-2.2c2.8-1.6,2.8-1.8,0.5-3.6c-2.9-2.3-5.5-4.7-7.1-7.4c-1.3-2.1-0.9-2.6,2.3-3.7c2.5-0.8,4.9-1.6,7.4-2.4   c1.8-0.6,2.8-0.7,3.6-0.3c0.4,0.3,0.8,0.7,1.1,1.4c1.7,3,4.3,5.8,7.7,8.3c0.6,0.4,1.2,0.8,1.8,1.2c1.8,1.1,3.9,1.9,6.4,2.5   c6.1,1.4,11.8-1.1,11.1-4.9c-0.2-1.3-0.9-2.5-1.7-3.8c-2.1-3.1-4.8-6.1-6.3-9.4c-2.3-5.3-1.3-10.2,6.2-14   c8.4-4.3,17.8-4.6,27.7-1.9c4.1,1.1,4.1,1.1,7.2-0.7c1.1-0.6,2.1-1.2,3.2-1.8c2.4-1.3,3.2-1.3,5.6,0c0.3,0.1,0.5,0.3,0.7,0.4   c0.5,0.3,1,0.6,1.4,0.9c5,2.9,5,2.9,0.1,5.8c-3.5,2-3.5,2.1-0.6,4.4c2.3,1.8,4.1,3.8,5.5,5.8   C290.2,180.081,289.8,180.881,287.9,181.481z M486,215.481l-293.4-169.3c-4-2.3-10.6-2.3-14.6,0L3.2,147.781c-4,2.3-4,6.1,0,8.5   l293.3,169.3c4.1,2.4,10.6,2.3,14.6,0l174.9-101.6C490,221.681,490.1,217.881,486,215.481z M333.1,286.481c-1.6-1.6-3.6-3-5.9-4.3   c-14.9-8.6-39-8.6-53.9,0c-1.1,0.7-2.1,1.3-3.1,2.1l-197.6-114.2c1.9-0.8,3.7-1.6,5.4-2.6c14.8-8.6,14.7-22.6-0.2-31.2   c-1.6-0.9-3.4-1.8-5.2-2.5l81.5-47.3c1.3,1,2.7,2.1,4.3,3c14.9,8.6,39.1,8.6,53.9,0c1.7-1,3.2-2,4.4-3.1l198.2,114.5   c-2.6,0.9-5.1,2-7.3,3.3c-14.8,8.6-14.7,22.6,0.2,31.2c2.3,1.3,4.9,2.4,7.6,3.4L333.1,286.481z M357,243.281l-12.9,7.5   c-2,1.1-5.2,1.2-7.2,0l-22.7-13.1c-2-1.2-2-3,0-4.2l12.9-7.5c2-1.1,5.2-1.2,7.2,0l22.7,13.1C359,240.281,359,242.181,357,243.281z    M175,138.181l-12.9,7.5c-2,1.1-5.2,1.2-7.2,0l-22.7-13.1c-2-1.2-2-3,0-4.2l12.9-7.5c2-1.1,5.2-1.2,7.2,0l22.7,13.1   C177,135.181,177,137.081,175,138.181z M466.2,267.581l22.8,13.2l-183.3,106.5l-6-3.4l-16.9-9.7L0,210.581l22.6-13.1l282.9,163.4   L466.2,267.581z M465.8,325.281l22.8,13.2L306,444.581l-5.9-3.4l-16.9-9.7L0,267.581l22.6-13.1l283.3,163.8L465.8,325.281z" id="svg_2" fill="#d23b38" stroke="#242424" stroke-opacity="1"/>
</g><g id="svg_3">
</g><g id="svg_4">
</g><g id="svg_5">
</g><g id="svg_6">
</g><g id="svg_7">
</g><g id="svg_8">
</g><g id="svg_9">
</g><g id="svg_10">
</g><g id="svg_11">
</g><g id="svg_12">
</g><g id="svg_13">
</g><g id="svg_14">
</g><g id="svg_15">
</g><g id="svg_16">
</g><g id="svg_17">
</g></g></svg>