<svg xmlns="http://www.w3.org/2000/svg" xmlns:xlink="http://www.w3.org/1999/xlink" width="470" height="470" enable-background="new 0 0 470 470" version="1.1"><rect id="backgroundrect" width="100%" height="100%" x="0" y="0" fill="none" stroke="none"/><g class="currentLayer"><title>Layer 1</title><g id="svg_1" fill="#d23b38" fill-opacity="1" stroke="#242424" stroke-opacity="1" stroke-width="1" class="selected"><path id="svg_2" fill="#d23b38" stroke="#242424" stroke-opacity="1" stroke-width="1" d="m126.184,358.1245537648201 c19.299,0 35,-15.701 35,-35 s-15.701,-35 -35,-35 s-35,15.701 -35,35 s15.701,35 35,35 zm0,-55 c11.028,0 20,8.972 20,20 s-8.972,20 -20,20 s-20,-8.972 -20,-20 s8.971,-20 20,-20 z"/><path id="svg_3" fill="#d23b38" stroke="#242424" stroke-opacity="1" stroke-width="1" d="m343.816,288.1245537648201 c-19.299,0 -35,15.701 -35,35 s15.701,35 35,35 s35,-15.701 35,-35 s-15.701,-35 -35,-35 zm0,55 c-11.028,0 -20,-8.972 -20,-20 s8.972,-20 20,-20 s20,8.972 20,20 s-8.971,20 -20,20 z"/><path id="svg_4" fill="#d23b38" stroke="#242424" stroke-opacity="1" stroke-width="1" d="m137.5,115.2225537648201 h23.779 c4.143,0 7.5,-3.358 7.5,-7.5 s-3.357,-7.5 -7.5,-7.5 h-23.779 c-10.423,0 -27.031,7.176 -34.177,14.767 l-60.088,63.845 c-2.051,2.179 -2.609,5.368 -1.423,8.115 c1.187,2.747 3.8930000000000002,4.525 6.885,4.525 h290.271 c2.5620000000000003,0 4.945,-1.307 6.323,-3.467 c1.377,-2.159 1.558,-4.873 0.47800000000000004,-7.195 l-30.854,-66.365 c-3.315,-7.046 -14.628,-14.225 -22.415,-14.225 h-101.221 c-4.143,0 -7.5,3.358 -7.5,7.5 l-0.0010000000000000002,68.752 h-117.722 l48.19,-51.204 c4.243,-4.508 17.066,-10.048 23.254,-10.048 zm61.279,0 h93.7 c2.203,0.10300000000000001 7.8420000000000005,3.681 8.849,5.581 l25.883,55.671 h-128.433 l0.0010000000000000002,-61.252 z"/><path id="svg_5" fill="#d23b38" stroke="#242424" stroke-opacity="1" stroke-width="1" d="m470,256.8655537648201 c0,-26.631 -20.555,-55.149 -45.819,-63.57 c-0.017000000000000005,-0.006000000000000002 -35.078,-11.693 -35.078,-11.693 c-5.854,-1.951 -13.576,-8.812 -16.203,-14.394 l-30.84,-65.535 c-8.299,-17.636 -30.068,-31.451 -49.56,-31.451 h-155 c-18.639,0 -43.247,10.632 -56.022,24.206 l-69.158,73.482 c-6.909,7.34 -12.32,20.984 -12.32,31.064 v94.15 c0,20.678 16.822,37.5 37.5,37.5 h14.06 c3.775,37.846000000000004 35.8,67.5 74.624,67.5 s70.849,-29.654 74.624,-67.5 h45.509 c4.143,0 7.5,-3.358 7.5,-7.5 s-3.357,-7.5 -7.5,-7.5 h-45.509 c-3.775,-37.846000000000004 -35.8,-67.5 -74.624,-67.5 s-70.849,29.654 -74.624,67.5 h-14.06 c-12.406,0 -22.5,-10.093 -22.5,-22.5 v-94.15 c0,-6.2940000000000005 3.9290000000000003,-16.2 8.242,-20.783 l69.159,-73.483 c9.941,-10.563 30.594,-19.486 45.099,-19.486 h155 c13.682,0 30.162,10.458 35.987,22.838 l30.84,65.535 c4.421,9.395 15.182,18.955 25.031,22.238 l28.498,9.499 c-0.49200000000000005,2.841 -0.7480000000000001,5.729 -0.7480000000000001,8.642 c0,25.238 18.65,46.198 42.892,49.831 v29.32 c0,12.407 -8.357,22.5 -18.631,22.5 h-17.929 c-3.775,-37.846000000000004 -35.8,-67.5 -74.624,-67.5 c-41.355,0 -75,33.645 -75,75 s33.645,75 75,75 c38.824,0 70.849,-29.654 74.624,-67.5 h17.929 c18.544,0 33.631,-16.822 33.631,-37.5 v-36.26 zm-343.816,6.259 c33.084,0 60,26.916 60,60 s-26.916,60 -60,60 s-60,-26.916 -60,-60 s26.916,-60 60,-60 zm217.632,120 c-33.084,0 -60,-26.916 -60,-60 s26.916,-60 60,-60 s60,26.916 60,60 s-26.916,60 -60,60 zm83.292,-169.15 c0,-0.9690000000000001 0.04000000000000001,-1.9340000000000002 0.11700000000000002,-2.8930000000000002 c13.16,7.627 23.787,22.37 26.864,37.266 c-15.466,-3.785 -26.981,-17.756 -26.981,-34.373 z"/></g></g><defs><filter xmlns:inkscape="http://www.inkscape.org/namespaces/inkscape" id="f002" width="1" height="1" x="0" y="0" color-interpolation-filters="sRGB" inkscape:label="Smart jelly" inkscape:menu="Bevels" inkscape:menu-tooltip="Same as Matte jelly but with more controls"><feBlend in2="result91" mode="normal" result="result3"/><feComposite in2="result3" k2="1" operator="arithmetic" result="result4"/><feColorMatrix id="feColorMatrix3006" in="result4" result="result0" values="1 0 0 0 0 0 1 0 0 0 0 0 1 0 0 0 0 0 0.85 0"/><feGaussianBlur in="SourceAlpha" stdDeviation="7"/><feSpecularLighting result="result1" specularConstant="1" specularExponent="25" surfaceScale="5"><feDistantLight azimuth="225" elevation="60"/></feSpecularLighting><feComposite in2="result0" k1=".5" k2="1" k3=".5" operator="arithmetic"/><feComposite in2="result0" operator="atop" result="result2"/><feComposite in2="SourceGraphic" operator="in"/></filter></defs></svg>