<svg xmlns="http://www.w3.org/2000/svg" xmlns:xlink="http://www.w3.org/1999/xlink" version="1.1" style="enable-background:new 0 0 303.899 303.899;" xml:space="preserve" width="303.899" height="303.899"><rect id="backgroundrect" width="100%" height="100%" x="0" y="0" fill="none" stroke="none"/>
















<g class="currentLayer" style=""><title>Layer 1</title><g id="svg_1" class="selected" fill-opacity="1" fill="#d23b38">
	<path style="" d="M266.925,27.634553764820097 C242.983,3.6935537648200985 207.511,-5.5934462351799015 167.038,1.490553764820099 c-39.5,6.912 -79.235,28.7 -111.884,61.349 c-2.9290000000000003,2.93 -2.9290000000000003,7.678 0,10.607 c2.9290000000000003,2.928 7.678,2.928 10.606,0 c30.488,-30.488 67.374,-50.795 103.863,-57.181 c35.516,-6.219 66.308,1.589 86.695,21.977 c42.831,42.831 27.039,128.315 -35.205,190.558 c-30.488,30.488 -67.374,50.795 -103.863,57.181 c-35.52,6.217 -66.308,-1.589 -86.695,-21.977 c-4.824,-4.823 -7.191,-9.188 -7.036,-12.973 c0.29500000000000004,-7.188 9.422,-14.929 18.25,-22.414 c11.187,-9.487 22.755,-19.297 23.311,-32.837 c0.32600000000000007,-7.948 -3.3970000000000002,-15.868 -11.067,-23.538 c-30.167,-30.168 -25.777,-49.291 -17.503,-64.018 c2.029,-3.611 0.7460000000000001,-8.184 -2.865,-10.213 s-8.184,-0.7460000000000001 -10.212,2.865 c-15.215,27.083 -8.868,53.13 19.974,81.973 c4.583,4.583 6.833,8.728 6.686,12.315 c-0.28600000000000003,6.969 -9.304,14.616 -18.025,22.012 c-11.293,9.577 -22.97,19.479 -23.535,33.239 c-0.3390000000000001,8.26 3.396,16.174 11.417,24.195 c18.703,18.703 44.438,28.462 74.101,28.461 c8.309,0 16.931,-0.7670000000000001 25.786,-2.316 c39.5,-6.912 79.235,-28.7 111.884,-61.349 c32.649,-32.649 54.437,-72.384 61.35,-111.884 C300.153,87.0515537648201 290.868,51.5785537648201 266.925,27.634553764820097 z" id="svg_2" fill="#d23b38" fill-opacity="1"/>
	<path style="" d="M64.762,228.5665537648201 c-9.554,9.555 -9.554,25.101 0,34.655 c4.628,4.628 10.782,7.177 17.327,7.177 s12.699,-2.549 17.328,-7.177 c4.628,-4.6290000000000004 7.177,-10.782 7.177,-17.327 c0,-6.546 -2.549,-12.699 -7.177,-17.328 c-4.628,-4.628 -10.782,-7.177 -17.328,-7.177 S69.39,223.93855376482009 64.762,228.5665537648201 zM91.594,245.8945537648201 c0,2.5380000000000003 -0.989,4.925 -2.784,6.72 c-1.795,1.796 -4.182,2.784 -6.721,2.784 c-2.539,0 -4.925,-0.988 -6.721,-2.784 c-3.706,-3.705 -3.706,-9.735 0,-13.44 c1.795,-1.796 4.182,-2.784 6.721,-2.784 c2.539,0 4.926,0.988 6.721,2.784 C90.605,240.9685537648201 91.594,243.3555537648201 91.594,245.8945537648201 z" id="svg_3" fill="#d23b38" fill-opacity="1"/>
	<path style="" d="M146.566,218.9015537648201 c-2.9290000000000003,-2.9290000000000003 -7.678,-2.93 -10.607,-0.0010000000000000002 c-4.628,4.6290000000000004 -7.178,10.782 -7.178,17.328 c0,6.545 2.549,12.698 7.177,17.326 c4.628,4.6290000000000004 10.782,7.179 17.328,7.179 s12.699,-2.55 17.327,-7.178 c9.554,-9.555 9.554,-25.101 0,-34.655 c-2.9290000000000003,-2.928 -7.678,-2.928 -10.606,0 c-2.9290000000000003,2.93 -2.9290000000000003,7.678 0,10.607 c3.706,3.705 3.706,9.735 0,13.441 c-1.795,1.795 -4.182,2.784 -6.72,2.784 s-4.925,-0.989 -6.721,-2.785 c-1.795,-1.795 -2.784,-4.182 -2.784,-6.72 c0,-2.539 0.989,-4.926 2.784,-6.721 C149.495,226.5795537648201 149.495,221.8305537648201 146.566,218.9015537648201 z" id="svg_4" fill="#d23b38" fill-opacity="1"/>
	<path style="" d="M190.919,177.3765537648201 c-4.628,4.6290000000000004 -7.177,10.782 -7.177,17.328 c0,6.545 2.549,12.698 7.177,17.327 c4.628,4.628 10.782,7.177 17.327,7.177 s12.699,-2.549 17.328,-7.177 c9.554,-9.555 9.554,-25.101 0,-34.655 c-4.628,-4.628 -10.782,-7.177 -17.328,-7.177 S195.547,172.7485537648201 190.919,177.3765537648201 zM214.967,201.4245537648201 c-1.795,1.796 -4.182,2.784 -6.721,2.784 c-2.539,0 -4.925,-0.988 -6.721,-2.784 c-1.795,-1.795 -2.784,-4.182 -2.784,-6.72 c0,-2.539 0.989,-4.926 2.784,-6.721 c1.795,-1.796 4.182,-2.784 6.721,-2.784 c2.539,0 4.926,0.988 6.721,2.784 C218.672,191.6895537648201 218.672,197.7195537648201 214.967,201.4245537648201 z" id="svg_5" fill="#d23b38" fill-opacity="1"/>
	<path style="" d="M248.1,154.8515537648201 c1.464,1.464 3.384,2.196 5.303,2.196 s3.839,-0.7320000000000001 5.303,-2.196 c9.554,-9.555 9.554,-25.101 0,-34.655 c-9.553,-9.553 -25.1,-9.553 -34.655,0 c-9.554,9.555 -9.554,25.101 0,34.655 c2.9290000000000003,2.928 7.678,2.928 10.606,0 c2.9290000000000003,-2.93 2.9290000000000003,-7.678 0,-10.607 c-3.706,-3.705 -3.706,-9.735 0,-13.44 c3.705,-3.707 9.736,-3.709 13.442,0 c3.706,3.705 3.706,9.735 0,13.44 C245.171,147.1735537648201 245.171,151.9215537648201 248.1,154.8515537648201 z" id="svg_6" fill="#d23b38" fill-opacity="1"/>
	<path style="" d="M240.574,45.9715537648201 c-6.545,0 -12.699,2.549 -17.327,7.177 c-9.554,9.555 -9.554,25.101 0,34.655 c4.628,4.628 10.782,7.177 17.327,7.177 s12.699,-2.549 17.327,-7.177 c9.554,-9.555 9.554,-25.101 0,-34.655 C253.273,48.5205537648201 247.12,45.9715537648201 240.574,45.9715537648201 zM247.295,77.1965537648201 c-1.795,1.796 -4.182,2.784 -6.721,2.784 s-4.925,-0.988 -6.721,-2.784 c-3.706,-3.705 -3.706,-9.735 0,-13.44 c1.795,-1.796 4.182,-2.784 6.721,-2.784 s4.925,0.988 6.721,2.784 C251.001,67.4605537648201 251.001,73.4915537648201 247.295,77.1965537648201 z" id="svg_7" fill="#d23b38" fill-opacity="1"/>
	<path style="" d="M175.525,29.0175537648201 c-6.545,0 -12.699,2.549 -17.327,7.177 c-9.554,9.555 -9.554,25.101 0,34.654 c4.628,4.6290000000000004 10.782,7.179 17.328,7.179 s12.699,-2.55 17.327,-7.178 c4.628,-4.6290000000000004 7.178,-10.782 7.178,-17.327 c0,-6.546 -2.549,-12.699 -7.178,-17.328 C188.223,31.5665537648201 182.07,29.0175537648201 175.525,29.0175537648201 zM182.245,60.2435537648201 c-1.795,1.795 -4.182,2.784 -6.72,2.784 s-4.925,-0.989 -6.721,-2.785 c-3.706,-3.705 -3.706,-9.735 0,-13.44 c1.795,-1.796 4.182,-2.784 6.721,-2.784 s4.925,0.988 6.721,2.784 c1.795,1.795 2.784,4.182 2.784,6.721 C185.029,56.0605537648201 184.041,58.4475537648201 182.245,60.2435537648201 z" id="svg_8" fill="#d23b38" fill-opacity="1"/>
	<path style="" d="M96.532,88.1545537648201 c-10.17,0 -19.731,3.9610000000000003 -26.922,11.152 c-7.191,7.191 -11.152,16.752 -11.152,26.922 s3.96,19.731 11.152,26.923000000000002 c7.191,7.19 16.752,11.151 26.922,11.151 s19.731,-3.9610000000000003 26.922,-11.151 c14.845,-14.845 14.845,-38.999 0,-53.846000000000004 C116.263,92.11555376482009 106.702,88.1545537648201 96.532,88.1545537648201 zM112.848,142.5435537648201 c-4.358,4.358 -10.152,6.759 -16.316,6.759 c-6.163,0 -11.958,-2.4 -16.315,-6.759 c-4.358,-4.357 -6.758,-10.151 -6.758,-16.315 c0,-6.163 2.4,-11.958 6.758,-16.315 c4.358,-4.358 10.152,-6.759 16.315,-6.759 c6.164,0 11.958,2.4 16.315,6.758 C121.844,118.9095537648201 121.844,133.5475537648201 112.848,142.5435537648201 z" id="svg_9" fill="#d23b38" fill-opacity="1"/>
</g><g id="svg_10">
</g><g id="svg_11">
</g><g id="svg_12">
</g><g id="svg_13">
</g><g id="svg_14">
</g><g id="svg_15">
</g><g id="svg_16">
</g><g id="svg_17">
</g><g id="svg_18">
</g><g id="svg_19">
</g><g id="svg_20">
</g><g id="svg_21">
</g><g id="svg_22">
</g><g id="svg_23">
</g><g id="svg_24">
</g></g></svg>