<svg xmlns="http://www.w3.org/2000/svg" xmlns:xlink="http://www.w3.org/1999/xlink" style="enable-background:new 0 0 100 100" width="106.579" height="106.579" version="1.1" xml:space="preserve"><rect id="backgroundrect" width="100%" height="100%" x="0" y="0" fill="none" stroke="none"/><g class="currentLayer"><title>Layer 1</title><g id="svg_1" fill="#fff" fill-opacity="1"><path id="svg_2" fill="#fff" fill-opacity="1" d="M74.54736838340759,77.43157892227173 c-6.9,0 -12.5,-5.6 -12.5,-12.5 V48.23157892227172 c0,-3.4 1.3,-6.5 3.7,-8.9 c2.4,-2.4 5.5,-3.7 8.8,-3.7 c0,0 0,0 0,0 c3.3,0 6.5,1.3 8.8,3.7 c2.4,2.4 3.7,5.5 3.7,8.8 v16.7 C87.04736838340759,71.83157892227173 81.44736838340759,77.43157892227173 74.54736838340759,77.43157892227173 zM74.54736838340759,44.13157892227173 c-1.1,0 -2.2,0.4 -2.9,1.2 c-0.8,0.8 -1.2,1.8 -1.2,2.9 v16.7 c0,2.3 1.9,4.2 4.2,4.2 c2.3,0 4.2,-1.9 4.2,-4.2 V48.23157892227172 c0,-1.1 -0.4,-2.2 -1.2,-3 C76.74736838340759,44.531578922271734 75.74736838340759,44.13157892227173 74.54736838340759,44.13157892227173 C74.54736838340759,44.13157892227173 74.54736838340759,44.13157892227173 74.54736838340759,44.13157892227173 zM32.94736838340759,77.43157892227173 c-6.9,0 -12.5,-5.6 -12.5,-12.5 V48.23157892227172 c0,-6.9 5.6,-12.5 12.5,-12.5 c6.9,0 12.5,5.6 12.5,12.5 v16.7 C45.44736838340759,71.83157892227173 39.8473683834076,77.43157892227173 32.94736838340759,77.43157892227173 zM32.94736838340759,44.13157892227173 c-2.3,0 -4.2,1.9 -4.2,4.2 v16.7 c0,2.3 1.9,4.2 4.2,4.2 c2.3,0 4.2,-1.9 4.2,-4.2 V48.23157892227172 C37.047368383407594,45.931578922271726 35.24736838340759,44.13157892227173 32.94736838340759,44.13157892227173 z" class="st0"/></g><g id="svg_3" fill="#fff" fill-opacity="1"><path id="svg_4" fill="#fff" fill-opacity="1" d="M82.94736838340759,94.13157892227173 H62.047368383407594 c-2.3,0 -4.2,-1.9 -4.2,-4.2 s1.9,-4.2 4.2,-4.2 H82.94736838340759 c6.9,0 12.5,-5.6 12.5,-12.5 V52.431578922271726 c0,-23 -18.7,-41.7 -41.7,-41.7 c-23,0 -41.7,18.7 -41.7,41.7 V56.63157892227173 c0,2.3 -1.9,4.2 -4.2,4.2 s-4.2,-1.9 -4.2,-4.2 v-4.2 c0,-27.6 22.4,-50 50,-50 c27.6,0 50,22.4 50,50 v20.8 C103.74736838340759,84.73157892227172 94.44736838340759,94.13157892227173 82.94736838340759,94.13157892227173 z" class="st0"/></g><g id="svg_5" fill="#fff" fill-opacity="1"><path id="svg_6" fill="#fff" fill-opacity="1" d="M53.74736838340759,102.43157892227173 c-6.9,0 -12.5,-5.6 -12.5,-12.5 c0,-6.9 5.6,-12.5 12.5,-12.5 c6.9,0 12.5,5.6 12.5,12.5 C66.24736838340759,96.83157892227173 60.647368383407596,102.43157892227173 53.74736838340759,102.43157892227173 zM53.74736838340759,85.73157892227172 c-2.3,0 -4.2,1.9 -4.2,4.2 c0,2.3 1.9,4.2 4.2,4.2 c2.3,0 4.2,-1.9 4.2,-4.2 C57.94736838340759,87.63157892227173 56.047368383407594,85.73157892227172 53.74736838340759,85.73157892227172 z" class="st0"/></g></g></svg>