<svg xmlns="http://www.w3.org/2000/svg" style="width:1em;height:1em;vertical-align:middle;fill:currentcolor" width="1024" height="1024" version="1.1"><rect id="backgroundrect" width="100%" height="100%" x="0" y="0" fill="none" stroke="none"/><g class="currentLayer"><title>Layer 1</title><path id="svg_1" fill="#d23b38" fill-opacity="1" d="M359.7 580.9m-43.7 0a43.7 43.7 0 1 0 87.4 0 43.7 43.7 0 1 0-87.4 0Z"/><path id="svg_2" fill="#d23b38" fill-opacity="1" d="M280.2,652.5735537648201 c-8.1,12.6 -12.8,27.6 -12.8,43.8 c0,45 36.5,81.4 81.4,81.4 s81.4,-36.5 81.4,-81.4 c0,-16.1 -4.7,-31.1 -12.8,-43.8 H280.2 z"/><path id="svg_3" fill="#d23b38" fill-opacity="1" d="M566.1 647.3H268.4c-7.1 0-13.6-2.9-18.4-8.1-4.8-5.2-7.1-12-6.5-19l6.9-82.8c1.1-12.8 12-22.9 24.9-22.9h316.9c19.5-30.6 47.6-55 81-70H275.3c-23.9 0-46.7 8.9-64.3 25.1-17.6 16.2-28.4 38.2-30.4 62l-6.9 82.8c-2.2 26.4 6.8 52.7 24.7 72.2s43.4 30.7 69.9 30.7h325.9c-13.8-20.7-23.6-44.4-28.1-70z"/><path id="svg_4" fill="#d23b38" fill-opacity="1" d="M685.3 439.6H333.1l19-101.6 0.1-1.1c1.5-12.5 12.2-21.9 24.8-21.9h280.5c12.5 0 23.2 9.4 24.8 21.8l0.1 1.1 18.6 96.8c15.4-4.1 31.5-6.3 48.2-6.3 7.5 0 14.9 0.5 22.1 1.3l-19.7-102.9C745 280 704.7 245 657.5 245H377c-47.5 0-87.7 35.2-94.1 82.2l-34.1 182.4h346.6c21.8-31.8 53.1-56.6 89.9-70zM634.6 565.6h122.1c19.3 0 35 15.7 35 35s-15.7 35-35 35H634.6c-19.3 0-35-15.7-35-35s15.7-35 35-35z"/><path id="svg_5" fill="#d23b38" fill-opacity="1" d="M732 473.9c9 0 17.9 3.4 24.7 10.3l84 84c17.9 17.9 17.9 47 0 64.9l-84 84c-13.7 13.7-35.8 13.7-49.5 0-13.7-13.7-13.7-35.8 0-49.5l67-67-67-67c-13.7-13.7-13.7-35.8 0-49.5 6.9-6.8 15.8-10.2 24.8-10.2z"/></g></svg>