<svg xmlns="http://www.w3.org/2000/svg" style="width: 1em; height: 1em; vertical-align: middle; fill: currentcolor;" version="1.1" width="1024" height="1024"><rect id="backgroundrect" width="100%" height="100%" x="0" y="0" fill="none" stroke="none"/><g class="currentLayer" style=""><title>Layer 1</title><path d="M363.6 581.1m-43.8 0a43.8 43.8 0 1 0 87.6 0 43.8 43.8 0 1 0-87.6 0Z" id="svg_1" class="" fill-opacity="1" fill="#d23b38"/><path d="M570 647.5H272.2c-7.1 0-13.6-2.9-18.4-8.1-4.8-5.2-7.1-12-6.5-19l6.9-82.8c1.1-12.9 12-22.9 24.9-22.9h317c19.5-30.6 47.6-55.1 81-70h-398c-23.9 0-46.7 8.9-64.3 25.1-17.6 16.2-28.4 38.2-30.4 62l-6.9 82.8c-2.2 26.4 6.8 52.8 24.8 72.3 17.9 19.5 43.4 30.7 70 30.7h326.1c-14-20.8-23.8-44.5-28.4-70.1z" id="svg_3" class="" fill-opacity="1" fill="#d23b38"/><path d="M689.3 439.7H336.9l19-101.6 0.1-1.1c1.5-12.5 12.2-22 24.8-22h280.6c12.5 0 23.2 9.4 24.8 21.8l0.1 1.1 18.6 96.8c15.4-4.1 31.5-6.3 48.2-6.3 7.5 0 14.9 0.5 22.2 1.3l-19.8-103c-6.6-46.7-46.8-81.7-94.1-81.7H380.9c-47.5 0-87.8 35.3-94.2 82.2l-34.1 182.5h346.8c21.7-31.8 53.1-56.6 89.9-70z" id="svg_4" class="" fill-opacity="1" fill="#d23b38"/><path d="M812.2 635.8H690.1c-19.3 0-35-15.7-35-35s15.7-35 35-35h122.1c19.3 0 35 15.7 35 35s-15.6 35-35 35z" id="svg_5" class="" fill-opacity="1" fill="#d23b38"/><path d="M714.8 727.6c-9 0-17.9-3.4-24.8-10.3l-84-84c-17.9-17.9-17.9-47.1 0-65l84-84c13.7-13.7 35.8-13.7 49.5 0 13.7 13.7 13.7 35.8 0 49.5l-67 67 67 67c13.7 13.7 13.7 35.8 0 49.5-6.7 6.9-15.7 10.3-24.7 10.3z" id="svg_6" class="" fill-opacity="1" fill="#d23b38"/><path fill="#d23b38" fill-opacity="1" stroke="none" stroke-opacity="1" stroke-width="1" stroke-dasharray="none" stroke-linejoin="miter" stroke-linecap="butt" stroke-dashoffset="" fill-rule="nonzero" opacity="1" marker-start="" marker-mid="" marker-end="" d="M270.04132252931595,719.9752073287964 C270.04132252931595,680.7486879917798 305.39491368953696,648.9752073287964 349.04132252931595,648.9752073287964 C392.68773136909493,648.9752073287964 428.04132252931595,680.7486879917798 428.04132252931595,719.9752073287964 C428.04132252931595,759.201726665813 392.68773136909493,790.9752073287964 349.04132252931595,790.9752073287964 C305.39491368953696,790.9752073287964 270.04132252931595,759.201726665813 270.04132252931595,719.9752073287964 z" id="svg_10" class=""/></g></svg>